<svg viewBox="0 0 512 512" xmlns="http://www.w3.org/2000/svg" xmlns:xlink="http://www.w3.org/1999/xlink"><linearGradient id="a" gradientTransform="matrix(1 0 0 -1 0 -18530)" gradientUnits="userSpaceOnUse" x1="0" x2="512" y1="-18786" y2="-18786"><stop offset="0" stop-color="#31d8ff"/><stop offset="1" stop-color="#ff80ff"/></linearGradient><path d="m512 256c0 141.386719-114.613281 256-256 256s-256-114.613281-256-256 114.613281-256 256-256 256 114.613281 256 256zm0 0" fill="url(#a)"/><g fill="#fff"><path d="m236.613281 307.1875h-133.113281c-8.285156 0-15-6.714844-15-15v-188.6875c0-8.285156 6.714844-15 15-15h133.113281c8.285157 0 15 6.714844 15 15v188.6875c0 8.285156-6.714843 15-15 15zm-118.113281-30h103.113281v-158.6875h-103.113281zm0 0"/><path d="m408.5 196.042969h-133.113281c-8.285157 0-15-6.71875-15-15v-77.542969c0-8.285156 6.714843-15 15-15h133.113281c8.285156 0 15 6.714844 15 15v77.542969c0 8.28125-6.714844 15-15 15zm-118.113281-30h103.113281v-47.542969h-103.113281zm0 0"/><path d="m236.613281 423.5h-133.113281c-8.285156 0-15-6.714844-15-15v-77.542969c0-8.28125 6.714844-15 15-15h133.113281c8.285157 0 15 6.71875 15 15v77.542969c0 8.285156-6.714843 15-15 15zm-118.113281-30h103.113281v-47.542969h-103.113281zm0 0"/><path d="m408.5 423.5h-133.113281c-8.285157 0-15-6.714844-15-15v-188.6875c0-8.285156 6.714843-15 15-15h133.113281c8.285156 0 15 6.714844 15 15v188.6875c0 8.285156-6.714844 15-15 15zm-118.113281-30h103.113281v-158.6875h-103.113281zm0 0"/></g></svg>