<?xml version="1.0" standalone="no"?>
<!DOCTYPE svg PUBLIC "-//W3C//DTD SVG 20010904//EN"
 "http://www.w3.org/TR/2001/REC-SVG-20010904/DTD/svg10.dtd">
<svg version="1.0" xmlns="http://www.w3.org/2000/svg"
 width="700.000000pt" height="700.000000pt" viewBox="0 0 700.000000 700.000000"
 preserveAspectRatio="xMidYMid meet">
<metadata>
Created by potrace 1.11, written by Peter Selinger 2001-2013
</metadata>
<g transform="translate(0.000000,700.000000) scale(0.100000,-0.100000)"
fill="#000000" stroke="none">
<path d="M3235 6990 c-301 -27 -561 -79 -835 -170 -1226 -404 -2139 -1469
-2349 -2740 -36 -217 -45 -338 -45 -580 0 -466 75 -869 241 -1285 654 -1647
2420 -2543 4138 -2100 477 123 920 348 1320 668 135 108 421 397 528 532 412
519 657 1108 743 1780 25 196 25 614 0 810 -86 672 -331 1261 -743 1780 -107
135 -393 424 -528 532 -530 425 -1130 678 -1800 758 -155 19 -530 27 -670 15z
m80 -1219 c49 -23 89 -64 109 -113 14 -33 16 -187 16 -1363 0 -1176 -2 -1330
-16 -1363 -20 -49 -60 -90 -109 -113 -38 -18 -86 -19 -990 -19 -904 0 -952 1
-990 19 -49 23 -89 64 -109 113 -14 33 -16 187 -16 1367 l0 1329 28 53 c22 43
38 59 81 81 l53 28 952 0 c904 0 953 -1 991 -19z m2350 0 c49 -23 89 -64 109
-113 24 -56 24 -1150 0 -1206 -20 -49 -60 -90 -109 -113 -38 -18 -87 -19 -991
-19 l-952 0 -53 28 c-43 22 -59 38 -81 81 l-28 53 0 569 c0 622 -1 610 58 673
15 16 45 37 67 47 38 18 86 19 990 19 904 0 952 -1 990 -19z m0 -1590 c49 -23
89 -64 109 -113 14 -33 16 -187 16 -1363 0 -1176 -2 -1330 -16 -1363 -20 -49
-60 -90 -109 -113 -38 -18 -86 -19 -990 -19 -904 0 -952 1 -990 19 -49 23 -89
64 -109 113 -14 33 -16 187 -16 1363 0 1176 2 1330 16 1363 20 49 60 90 109
113 38 18 86 19 990 19 904 0 952 -1 990 -19z m-2334 -1529 c43 -22 59 -38 81
-81 l28 -53 0 -569 c0 -622 1 -610 -58 -673 -15 -16 -45 -37 -67 -47 -38 -18
-87 -19 -991 -19 l-952 0 -53 28 c-43 22 -59 38 -81 81 l-28 53 0 573 0 573
28 53 c22 43 38 59 81 81 l53 28 953 0 953 0 53 -28z"/>
<path d="M1620 4295 l0 -1085 705 0 705 0 0 1085 0 1085 -705 0 -705 0 0
-1085z"/>
<path d="M3970 5055 l0 -325 705 0 705 0 0 325 0 325 -705 0 -705 0 0 -325z"/>
<path d="M3970 2705 l0 -1085 705 0 705 0 0 1085 0 1085 -705 0 -705 0 0
-1085z"/>
<path d="M1620 1945 l0 -325 705 0 705 0 0 325 0 325 -705 0 -705 0 0 -325z"/>
</g>
</svg>
